#N canvas 683 0 683 746 12;
#X obj -161 114 inlet;
#X obj 76 202 inlet;
#X obj 79 345 symbol \$1;
#X obj 79 375 list fromsymbol;
#X obj 197 223 inlet;
#X obj 204 398 list fromsymbol;
#X obj 205 359 symbol \$2;
#X obj -141 193 list split 1;
#X obj -88 168 list store;
#X obj -145 238 list prepend list;
#X obj -145 268 list trim;
#X obj -155 308 route float;
#X obj -56 367 list fromsymbol;
#X obj -56 427 list split 1;
#X obj -18 398 list store;
#X obj -69 526 list store;
#X obj -137 578 list tosymbol;
#X obj -79 338 t b a b;
#X obj -136 554 list store;
#X obj -63 624 list store;
#X obj -158 153 t b a b;
#X obj -163 667 list store;
#X obj -107 491 list append;
#X obj -152 623 list append;
#X obj -53 456 expr if($f1==$f2 \, $f3 \, $f1);
#X floatatom 77 402 5 0 0 0 - - -;
#X floatatom 205 423 5 0 0 0 - - -;
#X msg 225 304 \ ;
#X obj 266 228 loadbang;
#X obj 266 252 t b b;
#X obj -164 712 outlet;
#X msg 102 281 \,;
#X msg -92 101 tralala \, top \, notch;
#X connect 0 0 20 0;
#X connect 1 0 2 0;
#X connect 2 0 3 0;
#X connect 3 0 25 0;
#X connect 4 0 6 0;
#X connect 5 0 26 0;
#X connect 6 0 5 0;
#X connect 7 0 9 0;
#X connect 7 1 8 0;
#X connect 8 0 7 0;
#X connect 9 0 10 0;
#X connect 10 0 11 0;
#X connect 11 0 23 0;
#X connect 11 1 17 0;
#X connect 12 0 13 0;
#X connect 13 0 24 0;
#X connect 13 1 14 0;
#X connect 14 0 13 0;
#X connect 15 0 18 1;
#X connect 15 0 22 1;
#X connect 16 0 23 0;
#X connect 17 0 18 0;
#X connect 17 1 12 0;
#X connect 17 2 22 1;
#X connect 18 0 16 0;
#X connect 19 0 23 1;
#X connect 20 0 21 0;
#X connect 20 1 7 0;
#X connect 20 2 23 1;
#X connect 21 0 30 0;
#X connect 22 0 15 0;
#X connect 23 0 19 0;
#X connect 23 0 21 1;
#X connect 24 0 22 0;
#X connect 25 0 24 1;
#X connect 26 0 24 2;
#X connect 27 0 6 0;
#X connect 28 0 29 0;
#X connect 29 0 2 0;
#X connect 29 1 6 0;
#X connect 31 0 2 0;
#X connect 32 0 20 0;
